<svg width="284" height="46" viewBox="0 0 284 46" fill="none" xmlns="http://www.w3.org/2000/svg">
<path d="M110.135 3.00013H9.53468C9.16798 3.00013 8.80568 3.00013 8.43995 3.00213C8.1338 3.00413 7.83009 3.00994 7.521 3.01483C6.84951 3.02273 6.17961 3.08181 5.5171 3.19154C4.85552 3.30366 4.21467 3.51505 3.61622 3.81854C3.0185 4.1246 2.47235 4.5223 1.99757 4.9972C1.5203 5.47077 1.12246 6.01815 0.81935 6.61829C0.5154 7.21724 0.304641 7.85907 0.19435 8.52161C0.0830109 9.18332 0.0230984 9.85265 0.01515 10.5236C0.00587 10.8302 0.00489 11.1378 0 11.4445V34.5587C0.00489 34.8692 0.00587 35.17 0.01515 35.4806C0.0231008 36.1516 0.0830134 36.8209 0.19435 37.4825C0.304336 38.1455 0.515108 38.7877 0.81935 39.3868C1.12233 39.985 1.52022 40.5302 1.99757 41.0011C2.47054 41.4781 3.01705 41.8761 3.61622 42.1798C4.21467 42.4841 4.85545 42.6968 5.5171 42.8106C6.17972 42.9195 6.84956 42.9786 7.521 42.9874C7.83009 42.9942 8.1338 42.9981 8.43995 42.9981C8.80567 43.0001 9.168 43.0001 9.53468 43.0001H110.135C110.494 43.0001 110.859 43.0001 111.219 42.9981C111.523 42.9981 111.836 42.9942 112.141 42.9874C112.811 42.9791 113.479 42.92 114.141 42.8106C114.804 42.696 115.448 42.4834 116.049 42.1798C116.647 41.8759 117.193 41.478 117.666 41.0011C118.142 40.5284 118.541 39.9836 118.848 39.3868C119.15 38.7872 119.358 38.1451 119.467 37.4825C119.578 36.8208 119.64 36.1516 119.652 35.4806C119.656 35.17 119.656 34.8692 119.656 34.5587C119.664 34.1954 119.664 33.8341 119.664 33.4649V12.5363C119.664 12.17 119.664 11.8068 119.656 11.4445C119.656 11.1378 119.656 10.8302 119.652 10.5236C119.64 9.85255 119.578 9.18337 119.467 8.52157C119.358 7.85941 119.149 7.21763 118.848 6.61825C118.23 5.41533 117.252 4.43616 116.049 3.81845C115.448 3.5157 114.804 3.30437 114.141 3.19145C113.48 3.08123 112.811 3.02214 112.141 3.01469C111.836 3.00981 111.523 3.00395 111.219 3.002C110.859 3 110.494 3 110.135 3V3.00013Z" fill="#A6A6A6"/>
<path d="M8.44487 42.125C8.14019 42.125 7.84287 42.1211 7.54058 42.1143C6.91436 42.1061 6.2896 42.0516 5.67144 41.9512C5.09503 41.8519 4.53664 41.6673 4.0147 41.4033C3.49754 41.1415 3.02585 40.7983 2.6177 40.3867C2.20364 39.98 1.85891 39.5082 1.59719 38.9902C1.33258 38.4688 1.14945 37.9099 1.05419 37.333C0.951311 36.7131 0.895651 36.0863 0.887687 35.458C0.881347 35.2471 0.873047 34.5449 0.873047 34.5449V11.4443C0.873047 11.4443 0.881887 10.7529 0.887737 10.5498C0.895363 9.92248 0.950699 9.29665 1.05327 8.67773C1.14871 8.09925 1.33197 7.53875 1.59673 7.01563C1.85749 6.49794 2.2003 6.02586 2.61187 5.61768C3.02297 5.20562 3.49617 4.8606 4.01421 4.59521C4.53495 4.33209 5.09228 4.14873 5.66753 4.05127C6.28772 3.94984 6.91465 3.895 7.54304 3.88721L8.44536 3.875H111.214L112.127 3.8877C112.75 3.8951 113.371 3.94945 113.985 4.05029C114.566 4.14898 115.13 4.33362 115.656 4.59814C116.694 5.13299 117.539 5.97916 118.071 7.01807C118.332 7.53758 118.512 8.09351 118.607 8.66699C118.71 9.29099 118.768 9.92174 118.78 10.5542C118.783 10.8374 118.783 11.1416 118.783 11.4443C118.791 11.8193 118.791 12.1763 118.791 12.5361V33.4648C118.791 33.8281 118.791 34.1826 118.783 34.54C118.783 34.8652 118.783 35.1631 118.779 35.4697C118.768 36.0909 118.711 36.7104 118.608 37.3232C118.515 37.9043 118.333 38.4675 118.068 38.9932C117.805 39.5056 117.462 39.9733 117.053 40.3789C116.644 40.7927 116.172 41.1379 115.653 41.4014C115.128 41.6674 114.566 41.8527 113.985 41.9512C113.367 42.0522 112.742 42.1067 112.116 42.1143C111.823 42.1211 111.517 42.125 111.219 42.125L110.135 42.127L8.44487 42.125Z" fill="black"/>
<path d="M24.7689 23.3013C24.7796 22.4666 25.0013 21.6483 25.4134 20.9223C25.8254 20.1964 26.4143 19.5864 27.1254 19.1492C26.6737 18.5041 26.0777 17.9731 25.3849 17.5986C24.6921 17.224 23.9215 17.0162 23.1343 16.9916C21.455 16.8153 19.8271 17.9964 18.9714 17.9964C18.0991 17.9964 16.7816 17.0091 15.3629 17.0383C14.4452 17.0679 13.5509 17.3348 12.767 17.8128C11.9831 18.2909 11.3364 18.9638 10.89 19.7661C8.95595 23.1145 10.3985 28.0356 12.2511 30.7422C13.178 32.0676 14.2613 33.548 15.6788 33.4955C17.0658 33.438 17.5839 32.611 19.2582 32.611C20.9169 32.611 21.403 33.4955 22.8492 33.4621C24.3376 33.438 25.2753 32.1309 26.1697 30.793C26.8357 29.8486 27.3481 28.8049 27.6881 27.7005C26.8234 27.3347 26.0855 26.7226 25.5664 25.9403C25.0472 25.158 24.7699 24.2402 24.7689 23.3013Z" fill="white"/>
<path d="M22.0372 15.2113C22.8487 14.2371 23.2485 12.9849 23.1517 11.7207C21.9119 11.8509 20.7666 12.4435 19.9441 13.3803C19.542 13.838 19.234 14.3704 19.0378 14.9472C18.8415 15.524 18.7609 16.1337 18.8004 16.7417C19.4206 16.7481 20.0341 16.6137 20.5947 16.3486C21.1554 16.0835 21.6486 15.6946 22.0372 15.2113Z" fill="white"/>
<path d="M42.3022 30.1397H37.5688L36.4321 33.4961H34.4272L38.9106 21.0781H40.9936L45.477 33.4961H43.438L42.3022 30.1397ZM38.0591 28.5908H41.8111L39.9615 23.1436H39.9097L38.0591 28.5908Z" fill="white"/>
<path d="M55.1597 28.9695C55.1597 31.7829 53.6538 33.5905 51.3814 33.5905C50.8057 33.6207 50.2332 33.4881 49.7294 33.2079C49.2256 32.9278 48.8109 32.5114 48.5327 32.0065H48.4897V36.4909H46.6313V24.4421H48.4302V25.948H48.4644C48.7553 25.4455 49.1771 25.0313 49.6847 24.7495C50.1923 24.4676 50.7669 24.3287 51.3472 24.3474C53.645 24.3474 55.1597 26.1638 55.1597 28.9695ZM53.2495 28.9695C53.2495 27.1365 52.3023 25.9314 50.857 25.9314C49.437 25.9314 48.482 27.1618 48.482 28.9695C48.482 30.7937 49.437 32.0154 50.857 32.0154C52.3023 32.0154 53.2495 30.8191 53.2495 28.9695Z" fill="white"/>
<path d="M65.1245 28.9694C65.1245 31.7829 63.6187 33.5905 61.3462 33.5905C60.7706 33.6206 60.1981 33.488 59.6943 33.2079C59.1905 32.9278 58.7758 32.5114 58.4976 32.0065H58.4546V36.4909H56.5962V24.4421H58.395V25.948H58.4292C58.7201 25.4455 59.1419 25.0313 59.6495 24.7495C60.1571 24.4676 60.7317 24.3287 61.312 24.3474C63.6099 24.3474 65.1245 26.1638 65.1245 28.9694ZM63.2144 28.9694C63.2144 27.1364 62.2671 25.9314 60.8218 25.9314C59.4019 25.9314 58.4468 27.1618 58.4468 28.9694C58.4468 30.7937 59.4019 32.0153 60.8218 32.0153C62.2671 32.0153 63.2144 30.8191 63.2144 28.9694H63.2144Z" fill="white"/>
<path d="M71.7105 30.0362C71.8482 31.2676 73.0445 32.0762 74.6792 32.0762C76.2456 32.0762 77.3726 31.2676 77.3726 30.1572C77.3726 29.1934 76.6929 28.6162 75.0835 28.2207L73.4742 27.833C71.1939 27.2822 70.1353 26.2158 70.1353 24.4854C70.1353 22.3428 72.0025 20.8711 74.6538 20.8711C77.2778 20.8711 79.0767 22.3428 79.1372 24.4854H77.2612C77.1489 23.2461 76.1245 22.4981 74.6274 22.4981C73.1304 22.4981 72.106 23.2549 72.106 24.3565C72.106 25.2344 72.7603 25.751 74.3608 26.1465L75.729 26.4824C78.2769 27.0849 79.3355 28.1084 79.3355 29.9248C79.3355 32.248 77.4849 33.7031 74.5415 33.7031C71.7876 33.7031 69.9282 32.2822 69.8081 30.0361L71.7105 30.0362Z" fill="white"/>
<path d="M83.3462 22.2998V24.4424H85.0679V25.9141H83.3462V30.9053C83.3462 31.6807 83.6909 32.042 84.4477 32.042C84.6521 32.0384 84.8562 32.0241 85.0591 31.999V33.4619C84.7188 33.5255 84.3729 33.5543 84.0268 33.5478C82.1938 33.5478 81.479 32.8593 81.479 31.1035V25.9141H80.1626V24.4424H81.479V22.2998H83.3462Z" fill="white"/>
<path d="M86.0649 28.9697C86.0649 26.1211 87.7427 24.3311 90.3589 24.3311C92.9839 24.3311 94.6538 26.1211 94.6538 28.9697C94.6538 31.8262 92.9927 33.6084 90.3589 33.6084C87.726 33.6084 86.0649 31.8262 86.0649 28.9697ZM92.7602 28.9697C92.7602 27.0156 91.8647 25.8623 90.3589 25.8623C88.853 25.8623 87.9585 27.0244 87.9585 28.9697C87.9585 30.9316 88.853 32.0762 90.3589 32.0762C91.8647 32.0762 92.7602 30.9316 92.7602 28.9697H92.7602Z" fill="white"/>
<path d="M96.186 24.442H97.9585V25.983H98.0015C98.1214 25.5017 98.4034 25.0764 98.8 24.7785C99.1966 24.4806 99.6836 24.3284 100.179 24.3473C100.393 24.3465 100.607 24.3698 100.816 24.4166V26.1549C100.546 26.0723 100.264 26.0343 99.981 26.0426C99.711 26.0316 99.4418 26.0792 99.192 26.1821C98.9421 26.285 98.7175 26.4408 98.5335 26.6386C98.3496 26.8365 98.2106 27.0719 98.1262 27.3286C98.0417 27.5852 98.0139 27.8571 98.0444 28.1256V33.4957H96.186L96.186 24.442Z" fill="white"/>
<path d="M109.384 30.8369C109.134 32.4805 107.534 33.6084 105.486 33.6084C102.852 33.6084 101.217 31.8437 101.217 29.0127C101.217 26.1729 102.861 24.3311 105.408 24.3311C107.913 24.3311 109.488 26.0518 109.488 28.7969V29.4336H103.093V29.5459C103.064 29.8791 103.105 30.2148 103.216 30.5306C103.326 30.8464 103.502 31.1352 103.732 31.3778C103.963 31.6203 104.242 31.8111 104.552 31.9374C104.861 32.0637 105.195 32.1226 105.529 32.1103C105.968 32.1515 106.409 32.0498 106.785 31.8203C107.162 31.5909 107.455 31.246 107.62 30.8369L109.384 30.8369ZM103.102 28.1348H107.628C107.645 27.8352 107.6 27.5354 107.495 27.2541C107.39 26.9729 107.229 26.7164 107.02 26.5006C106.812 26.2849 106.561 26.1145 106.283 26.0003C106.006 25.8861 105.708 25.8305 105.408 25.8369C105.105 25.8351 104.805 25.8933 104.525 26.008C104.245 26.1227 103.99 26.2918 103.776 26.5054C103.562 26.7191 103.392 26.973 103.276 27.2527C103.16 27.5323 103.101 27.8321 103.102 28.1348V28.1348Z" fill="white"/>
<path d="M37.8262 11.7304C38.2158 11.7024 38.6067 11.7613 38.9709 11.9027C39.335 12.0442 39.6632 12.2647 39.9317 12.5483C40.2003 12.8319 40.4026 13.1716 40.524 13.5429C40.6454 13.9141 40.6829 14.3077 40.6338 14.6952C40.6338 16.6015 39.6035 17.6972 37.8262 17.6972H35.6709V11.7304H37.8262ZM36.5976 16.8534H37.7226C38.0011 16.87 38.2797 16.8244 38.5382 16.7198C38.7967 16.6152 39.0287 16.4542 39.2172 16.2487C39.4057 16.0431 39.546 15.7981 39.6278 15.5315C39.7097 15.2648 39.7311 14.9833 39.6904 14.7074C39.7281 14.4326 39.7046 14.1528 39.6215 13.8881C39.5383 13.6235 39.3977 13.3805 39.2096 13.1765C39.0216 12.9726 38.7907 12.8128 38.5337 12.7086C38.2766 12.6043 37.9996 12.5582 37.7226 12.5736H36.5976V16.8534Z" fill="white"/>
<path d="M41.6807 15.4438C41.6524 15.1479 41.6862 14.8493 41.7801 14.5672C41.8739 14.2852 42.0257 14.0258 42.2256 13.8059C42.4256 13.5859 42.6693 13.4101 42.9411 13.2898C43.213 13.1696 43.507 13.1074 43.8042 13.1074C44.1015 13.1074 44.3955 13.1696 44.6673 13.2898C44.9392 13.4101 45.1829 13.5859 45.3828 13.8059C45.5828 14.0258 45.7345 14.2852 45.8284 14.5672C45.9222 14.8493 45.9561 15.1479 45.9278 15.4438C45.9566 15.74 45.9232 16.039 45.8296 16.3215C45.736 16.6041 45.5843 16.8639 45.3843 17.0843C45.1843 17.3047 44.9404 17.4808 44.6683 17.6014C44.3962 17.7219 44.1019 17.7842 43.8042 17.7842C43.5066 17.7842 43.2123 17.7219 42.9402 17.6014C42.668 17.4808 42.4241 17.3047 42.2241 17.0843C42.0242 16.8639 41.8725 16.6041 41.7789 16.3215C41.6853 16.039 41.6519 15.74 41.6807 15.4438ZM45.0137 15.4438C45.0137 14.4677 44.5752 13.8969 43.8057 13.8969C43.0332 13.8969 42.5987 14.4677 42.5987 15.4438C42.5987 16.4277 43.0333 16.9941 43.8057 16.9941C44.5752 16.9941 45.0137 16.4238 45.0137 15.4438H45.0137Z" fill="white"/>
<path d="M51.5732 17.6973H50.6514L49.7207 14.3809H49.6504L48.7236 17.6973H47.8105L46.5693 13.1943H47.4707L48.2773 16.6303H48.3438L49.2695 13.1943H50.1221L51.0479 16.6303H51.1182L51.9209 13.1943H52.8096L51.5732 17.6973Z" fill="white"/>
<path d="M53.8535 13.1939H54.709V13.9092H54.7754C54.888 13.6523 55.0781 13.4369 55.3189 13.2931C55.5598 13.1493 55.8395 13.0842 56.1191 13.107C56.3382 13.0905 56.5582 13.1235 56.7628 13.2036C56.9674 13.2837 57.1514 13.4088 57.3011 13.5697C57.4508 13.7305 57.5623 13.923 57.6275 14.1328C57.6927 14.3426 57.7099 14.5644 57.6777 14.7818V17.6968H56.7891V15.0049C56.7891 14.2813 56.4746 13.9214 55.8174 13.9214C55.6686 13.9145 55.5201 13.9398 55.3821 13.9957C55.244 14.0515 55.1197 14.1365 55.0175 14.2449C54.9154 14.3533 54.8379 14.4825 54.7904 14.6236C54.7429 14.7647 54.7264 14.9145 54.7422 15.0625V17.6968H53.8535L53.8535 13.1939Z" fill="white"/>
<path d="M59.0938 11.4365H59.9824V17.6973H59.0938V11.4365Z" fill="white"/>
<path d="M61.2178 15.4439C61.1895 15.1479 61.2234 14.8494 61.3172 14.5673C61.4111 14.2852 61.5629 14.0259 61.7628 13.8059C61.9628 13.5859 62.2065 13.4101 62.4784 13.2898C62.7503 13.1696 63.0443 13.1074 63.3416 13.1074C63.6389 13.1074 63.9329 13.1696 64.2047 13.2898C64.4766 13.4101 64.7203 13.5859 64.9203 13.8059C65.1203 14.0259 65.272 14.2852 65.3659 14.5673C65.4598 14.8494 65.4936 15.1479 65.4653 15.4439C65.4942 15.7401 65.4607 16.0391 65.3671 16.3216C65.2734 16.6042 65.1217 16.864 64.9217 17.0844C64.7217 17.3048 64.4778 17.4809 64.2057 17.6014C63.9335 17.722 63.6392 17.7842 63.3416 17.7842C63.0439 17.7842 62.7496 17.722 62.4775 17.6014C62.2053 17.4809 61.9614 17.3048 61.7614 17.0844C61.5614 16.864 61.4097 16.6042 61.3161 16.3216C61.2225 16.0391 61.189 15.7401 61.2178 15.4439ZM64.5508 15.4439C64.5508 14.4678 64.1123 13.897 63.3428 13.897C62.5703 13.897 62.1358 14.4678 62.1358 15.4439C62.1358 16.4278 62.5704 16.9942 63.3428 16.9942C64.1123 16.9942 64.5508 16.4239 64.5508 15.4439H64.5508Z" fill="white"/>
<path d="M66.4009 16.4238C66.4009 15.6133 67.0044 15.146 68.0757 15.0796L69.2954 15.0093V14.6206C69.2954 14.145 68.981 13.8765 68.3735 13.8765C67.8774 13.8765 67.5337 14.0586 67.4351 14.377H66.5747C66.6655 13.6035 67.3931 13.1074 68.4146 13.1074C69.5435 13.1074 70.1802 13.6694 70.1802 14.6206V17.6973H69.3247V17.0645H69.2544C69.1117 17.2914 68.9113 17.4765 68.6737 17.6007C68.436 17.7249 68.1697 17.7838 67.9019 17.7715C67.7128 17.7911 67.5218 17.7709 67.341 17.7122C67.1602 17.6536 66.9938 17.5576 66.8524 17.4307C66.711 17.3037 66.5977 17.1485 66.52 16.9751C66.4422 16.8017 66.4016 16.6139 66.4009 16.4238ZM69.2954 16.0391V15.6626L68.1958 15.7329C67.5757 15.7744 67.2944 15.9853 67.2944 16.3823C67.2944 16.7876 67.646 17.0234 68.1294 17.0234C68.2711 17.0378 68.4142 17.0235 68.5502 16.9814C68.6862 16.9393 68.8123 16.8703 68.9211 16.7784C69.0299 16.6866 69.1191 16.5738 69.1834 16.4468C69.2477 16.3198 69.2858 16.1811 69.2954 16.0391Z" fill="white"/>
<path d="M71.3481 15.4439C71.3481 14.021 72.0796 13.1196 73.2173 13.1196C73.4987 13.1067 73.778 13.1741 74.0225 13.314C74.267 13.4539 74.4667 13.6605 74.5981 13.9096H74.6646V11.4365H75.5532V17.6973H74.7017V16.9858H74.6314C74.4897 17.2333 74.2831 17.4374 74.0339 17.5758C73.7846 17.7143 73.5022 17.782 73.2173 17.7715C72.0718 17.7715 71.3481 16.8701 71.3481 15.4439ZM72.2661 15.4439C72.2661 16.3989 72.7163 16.9737 73.4693 16.9737C74.2183 16.9737 74.6812 16.3907 74.6812 15.4478C74.6812 14.5093 74.2134 13.918 73.4693 13.918C72.7212 13.918 72.2661 14.4966 72.2661 15.4439H72.2661Z" fill="white"/>
<path d="M79.23 15.4438C79.2017 15.1479 79.2356 14.8493 79.3294 14.5672C79.4232 14.2852 79.575 14.0258 79.7749 13.8059C79.9749 13.5859 80.2186 13.4101 80.4904 13.2898C80.7623 13.1696 81.0563 13.1074 81.3536 13.1074C81.6508 13.1074 81.9448 13.1696 82.2167 13.2898C82.4885 13.4101 82.7322 13.5859 82.9322 13.8059C83.1321 14.0258 83.2839 14.2852 83.3777 14.5672C83.4715 14.8493 83.5054 15.1479 83.4771 15.4438C83.5059 15.74 83.4725 16.039 83.3789 16.3215C83.2853 16.6041 83.1336 16.8639 82.9336 17.0843C82.7336 17.3047 82.4897 17.4808 82.2176 17.6014C81.9455 17.7219 81.6512 17.7842 81.3536 17.7842C81.0559 17.7842 80.7616 17.7219 80.4895 17.6014C80.2173 17.4808 79.9735 17.3047 79.7735 17.0843C79.5735 16.8639 79.4218 16.6041 79.3282 16.3215C79.2346 16.039 79.2012 15.74 79.23 15.4438ZM82.563 15.4438C82.563 14.4677 82.1245 13.8969 81.355 13.8969C80.5826 13.8969 80.148 14.4677 80.148 15.4438C80.148 16.4277 80.5826 16.9941 81.355 16.9941C82.1245 16.9941 82.563 16.4238 82.563 15.4438Z" fill="white"/>
<path d="M84.6694 13.1939H85.5249V13.9092H85.5913C85.704 13.6523 85.894 13.4369 86.1348 13.2931C86.3757 13.1493 86.6555 13.0842 86.9351 13.107C87.1542 13.0905 87.3742 13.1235 87.5788 13.2036C87.7834 13.2837 87.9673 13.4088 88.117 13.5697C88.2667 13.7305 88.3783 13.923 88.4435 14.1328C88.5087 14.3426 88.5258 14.5644 88.4937 14.7818V17.6968H87.605V15.0049C87.605 14.2813 87.2905 13.9214 86.6333 13.9214C86.4846 13.9145 86.336 13.9398 86.198 13.9957C86.0599 14.0515 85.9356 14.1365 85.8335 14.2449C85.7313 14.3533 85.6539 14.4825 85.6063 14.6236C85.5588 14.7647 85.5423 14.9145 85.5581 15.0625V17.6968H84.6694V13.1939Z" fill="white"/>
<path d="M93.5151 12.0732V13.2148H94.4907V13.9634H93.5151V16.2788C93.5151 16.7505 93.7095 16.957 94.1519 16.957C94.2651 16.9567 94.3783 16.9498 94.4907 16.9365V17.6768C94.3311 17.7053 94.1694 17.7205 94.0073 17.7222C93.019 17.7222 92.6255 17.3745 92.6255 16.5063V13.9633H91.9106V13.2148H92.6255V12.0732H93.5151Z" fill="white"/>
<path d="M95.7046 11.4365H96.5854V13.918H96.6558C96.7739 13.6587 96.9691 13.4421 97.2148 13.2977C97.4605 13.1534 97.7447 13.0883 98.0288 13.1113C98.2467 13.0995 98.4646 13.1359 98.6669 13.2179C98.8692 13.2999 99.0508 13.4256 99.199 13.586C99.3471 13.7463 99.458 13.9373 99.5238 14.1455C99.5896 14.3536 99.6086 14.5737 99.5795 14.79V17.6973H98.69V15.0093C98.69 14.29 98.355 13.9258 97.7271 13.9258C97.5743 13.9132 97.4207 13.9342 97.2769 13.9873C97.1332 14.0404 97.0027 14.1242 96.8947 14.2329C96.7867 14.3417 96.7038 14.4727 96.6517 14.6168C96.5997 14.761 96.5797 14.9147 96.5933 15.0674V17.6973H95.7046L95.7046 11.4365Z" fill="white"/>
<path d="M104.761 16.4815C104.641 16.8931 104.379 17.249 104.022 17.4872C103.666 17.7253 103.236 17.8305 102.81 17.7842C102.513 17.7921 102.219 17.7353 101.946 17.6177C101.674 17.5002 101.43 17.3248 101.232 17.1036C101.034 16.8825 100.887 16.6209 100.8 16.3371C100.713 16.0533 100.689 15.754 100.73 15.46C100.691 15.1652 100.715 14.8652 100.801 14.5805C100.888 14.2959 101.034 14.0331 101.231 13.81C101.428 13.587 101.671 13.4088 101.942 13.2876C102.214 13.1664 102.509 13.105 102.806 13.1075C104.059 13.1075 104.815 13.9635 104.815 15.3775V15.6876H101.635V15.7374C101.621 15.9026 101.642 16.069 101.696 16.2257C101.75 16.3825 101.837 16.5262 101.95 16.6476C102.062 16.7691 102.2 16.8656 102.352 16.931C102.504 16.9964 102.669 17.0292 102.835 17.0274C103.047 17.0529 103.262 17.0146 103.453 16.9174C103.644 16.8202 103.802 16.6685 103.906 16.4815L104.761 16.4815ZM101.635 15.0303H103.91C103.921 14.8792 103.9 14.7274 103.849 14.5847C103.798 14.442 103.718 14.3115 103.614 14.2016C103.509 14.0918 103.383 14.005 103.243 13.9468C103.103 13.8886 102.953 13.8604 102.801 13.8638C102.648 13.8619 102.495 13.8908 102.353 13.9487C102.21 14.0067 102.081 14.0925 101.972 14.2012C101.864 14.3099 101.778 14.4393 101.72 14.5817C101.662 14.7241 101.633 14.8766 101.635 15.0303H101.635Z" fill="white"/>
</svg>
