<svg width="85" height="17" viewBox="0 0 85 17" fill="none" xmlns="http://www.w3.org/2000/svg">
<path d="M27.2841 4.70794C26.441 4.70992 25.6174 4.96185 24.9175 5.43189C24.2177 5.90192 23.6729 6.56893 23.3521 7.34858C23.0313 8.12824 22.9489 8.98551 23.1153 9.812C23.2817 10.6385 23.6895 11.3971 24.287 11.9918C24.8845 12.5865 25.645 12.9907 26.4723 13.1533C27.2995 13.3158 28.1564 13.2294 28.9346 12.9049C29.7127 12.5805 30.3772 12.0326 30.8439 11.3305C31.3106 10.6284 31.5587 9.80366 31.5567 8.96059C31.5649 8.39817 31.4598 7.83986 31.2477 7.31891C31.0356 6.79795 30.7209 6.325 30.3222 5.9282C29.9235 5.53141 29.4491 5.21889 28.9272 5.00925C28.4052 4.79961 27.8464 4.69714 27.2841 4.70794ZM27.2841 11.5422C26.7673 11.5783 26.2517 11.4582 25.8041 11.1974C25.3565 10.9365 24.9978 10.5471 24.7745 10.0797C24.5512 9.61232 24.4737 9.08854 24.552 8.5765C24.6304 8.06445 24.8609 7.58781 25.2137 7.20853C25.5666 6.82926 26.0253 6.56489 26.5304 6.4498C27.0354 6.3347 27.5634 6.37421 28.0457 6.56318C28.528 6.75214 28.9423 7.08183 29.2348 7.50939C29.5272 7.93694 29.6843 8.44258 29.6856 8.96059C29.7017 9.2888 29.6519 9.61693 29.5392 9.92561C29.4265 10.2343 29.2531 10.5173 29.0293 10.7579C28.8055 10.9985 28.5357 11.1918 28.236 11.3266C27.9363 11.4613 27.6126 11.5346 27.2841 11.5422ZM17.9582 4.70794C17.1152 4.70992 16.2916 4.96185 15.5917 5.43189C14.8918 5.90192 14.3471 6.56893 14.0263 7.34858C13.7055 8.12824 13.6231 8.98551 13.7895 9.812C13.9559 10.6385 14.3637 11.3971 14.9612 11.9918C15.5587 12.5865 16.3192 12.9907 17.1465 13.1533C17.9737 13.3158 18.8306 13.2294 19.6087 12.9049C20.3869 12.5805 21.0513 12.0326 21.5181 11.3305C21.9848 10.6284 22.2329 9.80366 22.2309 8.96059C22.2391 8.39817 22.134 7.83986 21.9219 7.31891C21.7098 6.79795 21.3951 6.325 20.9964 5.9282C20.5977 5.53141 20.1233 5.21889 19.6014 5.00925C19.0794 4.79961 18.5206 4.69714 17.9582 4.70794ZM17.9582 11.5422C17.4415 11.5783 16.9258 11.4582 16.4783 11.1974C16.0307 10.9365 15.672 10.5471 15.4487 10.0797C15.2254 9.61232 15.1479 9.08854 15.2262 8.5765C15.3045 8.06445 15.5351 7.58781 15.8879 7.20853C16.2407 6.82926 16.6995 6.56489 17.2045 6.4498C17.7096 6.3347 18.2376 6.37421 18.7199 6.56318C19.2022 6.75214 19.6165 7.08183 19.909 7.50939C20.2014 7.93694 20.3585 8.44258 20.3597 8.96059C20.3759 9.2888 20.3261 9.61693 20.2134 9.92561C20.1007 10.2343 19.9273 10.5173 19.7035 10.7579C19.4797 10.9985 19.2099 11.1918 18.9102 11.3266C18.6104 11.4613 18.2868 11.5346 17.9582 11.5422ZM6.87134 6.01875V7.81988H11.194C11.1263 8.66821 10.7736 9.4687 10.1934 10.0913C9.75979 10.5331 9.23826 10.8789 8.66256 11.1064C8.08686 11.334 7.46981 11.4381 6.85132 11.4121C5.57749 11.4121 4.35583 10.9061 3.45509 10.0054C2.55436 9.10461 2.04833 7.88295 2.04833 6.60912C2.04833 5.33529 2.55436 4.11363 3.45509 3.21289C4.35583 2.31216 5.57749 1.80613 6.85132 1.80613C8.07253 1.78797 9.25171 2.25173 10.1334 3.09693L11.4042 1.82614C10.8078 1.23628 10.0997 0.771372 9.32132 0.458659C8.54297 0.145946 7.71005 -0.0082844 6.87134 0.00500335C5.98178 -0.0296161 5.09439 0.1157 4.26233 0.432241C3.43028 0.748782 2.67069 1.23003 2.02907 1.84716C1.38746 2.46429 0.877034 3.20459 0.528375 4.02371C0.179716 4.84282 0 5.72389 0 6.61412C0 7.50435 0.179716 8.38542 0.528375 9.20454C0.877034 10.0237 1.38746 10.764 2.02907 11.3811C2.67069 11.9982 3.43028 12.4795 4.26233 12.796C5.09439 13.1125 5.98178 13.2579 6.87134 13.2232C7.72729 13.2574 8.58079 13.1102 9.3758 12.7911C10.1708 12.4721 10.8893 11.9885 11.4842 11.3721C12.535 10.2178 13.0949 8.69961 13.0452 7.13945C13.0488 6.76394 13.0186 6.38887 12.9551 6.01875H6.87134ZM52.2096 7.41962C51.9486 6.65188 51.4606 5.98151 50.8102 5.49728C50.1598 5.01304 49.3777 4.73778 48.5673 4.70794C48.02 4.70687 47.4782 4.81807 46.9756 5.03467C46.4729 5.25128 46.02 5.56868 45.6449 5.96725C45.2698 6.36583 44.9804 6.83711 44.7946 7.35197C44.6088 7.86682 44.5306 8.41431 44.5648 8.96059C44.5563 9.87401 44.8434 10.7657 45.3835 11.5024C45.9235 12.2392 46.6873 12.7815 47.561 13.0483C48.4346 13.3151 49.3711 13.2921 50.2306 12.9828C51.0901 12.6735 51.8264 12.0944 52.3297 11.3321L50.8788 10.3314C50.6625 10.6919 50.3557 10.9896 49.9889 11.195C49.622 11.4004 49.2079 11.5063 48.7875 11.5022C48.3538 11.5201 47.9248 11.4064 47.5569 11.176C47.189 10.9456 46.8994 10.6094 46.7262 10.2114L52.4197 7.8599L52.2096 7.41962ZM46.406 8.84051C46.3857 8.5297 46.4276 8.21796 46.5293 7.92355C46.631 7.62915 46.7905 7.35799 46.9982 7.12597C47.206 6.89394 47.4581 6.7057 47.7395 6.57228C48.021 6.43886 48.3262 6.36294 48.6374 6.34896C48.9598 6.32928 49.2808 6.40518 49.5603 6.56716C49.8397 6.72914 50.0652 6.96999 50.2083 7.25952L46.406 8.84051ZM41.7831 12.9631H43.6543V0.455285H41.7831V12.9631ZM38.7212 5.65853H38.6511C38.3716 5.34019 38.0266 5.08598 37.6398 4.91328C37.2529 4.74058 36.8334 4.65347 36.4097 4.6579C35.3163 4.71093 34.2851 5.18265 33.5299 5.97531C32.7748 6.76796 32.3536 7.82078 32.3536 8.91556C32.3536 10.0103 32.7748 11.0632 33.5299 11.8558C34.2851 12.6485 35.3163 13.1202 36.4097 13.1732C36.834 13.1817 37.2548 13.0964 37.6423 12.9235C38.0298 12.7505 38.3742 12.4941 38.6511 12.1726H38.7212V12.783C38.7212 14.414 37.8506 15.2845 36.4498 15.2845C35.9818 15.2742 35.5274 15.1251 35.1444 14.8561C34.7614 14.5871 34.4669 14.2103 34.2984 13.7736L32.6774 14.444C32.9771 15.1967 33.4982 15.8408 34.1718 16.291C34.8453 16.7412 35.6397 16.9765 36.4498 16.9656C38.6411 16.9656 40.4523 15.6748 40.4523 12.5328V4.95809H38.7212V5.65853ZM36.5698 11.5422C35.9142 11.5013 35.2989 11.2121 34.8491 10.7334C34.3993 10.2546 34.1489 9.62247 34.1489 8.96559C34.1489 8.30871 34.3993 7.67654 34.8491 7.19783C35.2989 6.71911 35.9142 6.42986 36.5698 6.38898C36.8903 6.40281 37.2047 6.48095 37.4943 6.61876C37.7839 6.75657 38.0428 6.95123 38.2557 7.19116C38.4685 7.43108 38.631 7.71138 38.7333 8.01536C38.8356 8.31933 38.8757 8.64078 38.8513 8.96059C38.8786 9.28148 38.8405 9.60457 38.7394 9.91033C38.6382 10.2161 38.4761 10.4982 38.2629 10.7395C38.0496 10.9808 37.7896 11.1764 37.4986 11.3143C37.2076 11.4523 36.8917 11.5298 36.5698 11.5422ZM60.9751 0.455285H56.4923V12.9631H58.3634V8.22012H60.9751C61.5083 8.25843 62.0438 8.18647 62.548 8.00872C63.0523 7.83097 63.5145 7.55124 63.9059 7.18697C64.2973 6.82271 64.6094 6.38172 64.8228 5.89151C65.0363 5.40129 65.1464 4.87236 65.1464 4.3377C65.1464 3.80304 65.0363 3.27412 64.8228 2.7839C64.6094 2.29369 64.2973 1.8527 63.9059 1.48844C63.5145 1.12417 63.0523 0.844442 62.548 0.66669C62.0438 0.488937 61.5083 0.416972 60.9751 0.455285ZM60.9751 6.45903H58.3634V2.19637H61.0151C61.2963 2.19637 61.5747 2.25176 61.8345 2.35937C62.0943 2.46698 62.3304 2.62471 62.5292 2.82355C62.7281 3.02239 62.8858 3.25845 62.9934 3.51825C63.101 3.77805 63.1564 4.0565 63.1564 4.3377C63.1564 4.61891 63.101 4.89736 62.9934 5.15716C62.8858 5.41696 62.7281 5.65301 62.5292 5.85186C62.3304 6.0507 62.0943 6.20843 61.8345 6.31604C61.5747 6.42365 61.2963 6.47904 61.0151 6.47904L60.9751 6.45903ZM72.5223 4.66791C71.8408 4.62589 71.162 4.78453 70.5698 5.12421C69.9776 5.46389 69.498 5.9697 69.1902 6.5791L70.8412 7.26953C71.008 6.96875 71.2584 6.7227 71.562 6.56112C71.8657 6.39953 72.2096 6.32932 72.5523 6.35897C72.7898 6.33122 73.0305 6.35106 73.2603 6.41733C73.4901 6.48359 73.7043 6.59495 73.8906 6.74491C74.0769 6.89488 74.2315 7.08044 74.3453 7.29077C74.4591 7.5011 74.5299 7.73199 74.5535 7.96997V8.09004C73.9518 7.77376 73.2821 7.60891 72.6023 7.60975C70.8212 7.60975 69.0001 8.61037 69.0001 10.4315C69.0177 10.8186 69.1129 11.1982 69.2801 11.5477C69.4473 11.8973 69.683 12.2097 69.9733 12.4664C70.2636 12.7231 70.6025 12.9188 70.9699 13.0419C71.3373 13.1651 71.7257 13.2131 72.112 13.1832C72.5815 13.2092 73.0496 13.1098 73.468 12.8953C73.8865 12.6808 74.2404 12.3588 74.4935 11.9625H74.5535V12.9631H76.3546V8.15008C76.3546 5.95871 74.6936 4.68792 72.5623 4.68792L72.5223 4.66791ZM72.2921 11.5222C71.6817 11.5222 70.8312 11.212 70.8312 10.4615C70.8312 9.4609 71.8919 9.12069 72.8325 9.12069C73.4269 9.10602 74.0143 9.25116 74.5335 9.54095C74.4707 10.0844 74.213 10.5866 73.8082 10.9545C73.4035 11.3225 72.8791 11.5313 72.3321 11.5422L72.2921 11.5222ZM82.9187 4.95809L80.7774 10.3815H80.7174L78.496 4.95809H76.4947L79.8268 12.5428L77.9256 16.7554H79.8768L85 4.95809H82.9187ZM66.1083 12.9631H67.9694V0.455285H66.1083V12.9631Z" fill="white"/>
</svg>
